<?xml version="1.0" ?>
<!-- Uploaded to: SVG Repo, www.svgrepo.com, Generator: SVG Repo Mixer Tools -->
<svg width="800px" height="800px" viewBox="0 0 512 512" xmlns="http://www.w3.org/2000/svg">
<defs>
<style>.e{fill:#fcd17a;}.f{fill:#cecece;}.g{fill:#dfdfdf;}.h{fill:#41a08e;}.i{fill:#365650;}</style>
</defs>
<g id="a"/>
<g id="b"/>
<g id="c">
<g>
<path class="g" d="M243.7832,329.18604c-3.94556-4.17627-10.51221-4.41406-14.75-.53418l-53.6499,46.66504,26.4873-63.06787c2.17993-5.59619-.7605-11.87891-6.45435-13.79004l-.55762-.18701c-5.27661-1.771-11.01978,.87451-13.10229,6.03662l-28.09668,69.64014-21.5791,23.39014-4.90332,46.44678-41.63246,52.21436h61.61146l12.4043-25.31348,21.02393-8.43213c9.61011-3.85449,17.85718-10.479,23.6936-19.03174l19.75781-28.95361c2.58618-3.78955,2.22778-8.86035-.86597-12.24854-3.53076-3.86768-9.46362-4.31396-13.53369-1.01904l-1.64624,1.33301c4.81934-3.90234,5.34839-11.06152,1.15479-15.62988-3.84302-4.18604-10.27954-4.66016-14.69385-1.08154l-.72437,.58691,49.15967-41.73193c4.64746-3.8877,5.05811-10.8877,.89697-15.29199Z"/>
<path class="f" d="M181.20508,401.54883l-5.61133-5.70117c.33691-.33203,.69531-.65234,1.06543-.95215l15.27344-12.37988,5.03711,6.21484-15.27344,12.37988c-.17188,.13965-.33594,.28613-.49121,.43848Z"/>
<rect class="f" height="7.99886" transform="translate(-212.42186 217.08204) rotate(-38.9941)" width="19.65963" x="190.5198" y="404.52108"/>
<path class="h" d="M256,183.97461c-39.77856,0-72.02539,32.24683-72.02539,72.02539s32.24683,72.02539,72.02539,72.02539,72.02539-32.24707,72.02539-72.02539-32.24683-72.02539-72.02539-72.02539Zm-54.01904,72.02539c0-26.76636,19.46729-48.98584,45.01562-53.27197l.00024,44.2688-37.12671,37.12622c-5.00488-8.19189-7.88916-17.8208-7.88916-28.12305Zm20.58887,42.43457l24.427-24.42822,.00537,35.2666c-9.12231-1.5293-17.46973-5.34521-24.43237-10.83838Zm42.43359,10.8374l-.00024-35.26562,24.42749,24.42822c-6.96143,5.4917-15.30688,9.30762-24.42725,10.8374Zm37.12671-25.14893l-37.12695-37.12622-.00928-44.27051c25.55298,4.28247,45.02515,26.50415,45.02515,53.27368,0,10.30225-2.88403,19.93115-7.88892,28.12305Z"/>
<path class="g" d="M180.31396,271.36084l-67.94092-20.97656,67.55371-10.75195c5.90479-1.09912,9.69214-6.91064,8.31348-12.7561l-.13501-.57251c-1.27759-5.41748-6.55444-8.90186-12.03833-7.94922l-73.98657,12.85059-31.25317-6.00073-42.0498,20.32666-12.77734-1.5105v43.91162l6.99731-.70068,18.25122,13.4165c8.34253,6.13281,18.32007,9.64697,28.66455,10.0957l35.01953,1.51953c4.58398,.19873,8.70337-2.77979,9.95093-7.19482,1.42407-5.03955-1.32495-10.31592-6.271-12.03613l-2.00122-.69629c5.85718,2.03711,12.21924-1.28857,13.88965-7.26074,1.53027-5.47266-1.46118-11.19141-6.82959-13.05518l-.87891-.30518,61.37939,19.76221c5.75391,1.89844,11.91797-1.44385,13.46606-7.30225,1.46777-5.55469-1.79272-11.25977-7.32397-12.81396Z"/>
<path class="g" d="M488.76514,220.81445l-18.42896-13.17139c-8.42407-6.02051-18.44751-9.40088-28.79712-9.71143l-35.03687-1.05078c-4.58618-.1377-8.66528,2.89551-9.85376,7.32715-1.35645,5.05811,1.46289,10.29712,6.43164,11.95142l2.00781,.66846c-5.8833-1.95728-12.19897,1.45312-13.78882,7.44653-1.45703,5.49268,1.6106,11.1709,7.00342,12.96289l.88452,.29395-61.63965-18.94019c-5.77881-1.82153-11.89771,1.60327-13.36719,7.4812-1.39355,5.57397,1.94312,11.23486,7.49463,12.71533l68.21533,20.06592-67.40405,11.6543c-5.8894,1.17822-9.59888,7.03955-8.14209,12.86621l.14258,.5708c1.3501,5.3999,6.67285,8.81348,12.14355,7.7876l73.80835-13.83887,31.33057,5.58203,41.77417-20.88721,12.45679,1.3042v-43.90063l-7.23486,.82251Z"/>
<path class="e" d="M55.76855,216.76465l-7.85156-1.5293c5.96582-30.62891,18.36523-58.97852,36.85449-84.25879l6.45703,4.72266c-17.78906,24.32422-29.71973,51.59863-35.45996,81.06543Z"/>
<path class="e" d="M111.28125,410.92285c-24.11328-22.53516-42.86816-50.73047-54.23535-81.53809l7.50586-2.76953c10.9375,29.64258,28.98535,56.77441,52.19238,78.46191l-5.46289,5.8457Z"/>
<path class="e" d="M256,468c-13.70801,0-27.42285-1.31738-40.76465-3.91699l1.5293-7.85156c12.83887,2.5,26.03906,3.76855,39.23535,3.76855,27.18848,0,53.58691-5.25977,78.45996-15.63281l3.08008,7.38281c-25.85449,10.7832-53.28906,16.25-81.54004,16.25Z"/>
<path class="e" d="M427.22852,381.02246l-6.45703-4.72266c17.78906-24.32324,29.71973-51.59766,35.45996-81.06445l7.85156,1.5293c-5.96582,30.62988-18.36523,58.97852-36.85449,84.25781Z"/>
<path class="e" d="M447.44824,185.38477c-10.61426-28.7666-27.97949-55.25098-50.21777-76.59277l5.53906-5.77148c23.1084,22.1748,41.15332,49.69824,52.18457,79.59473l-7.50586,2.76953Z"/>
<path class="e" d="M185.38477,64.55176l-2.76953-7.50586c23.46094-8.65625,48.15137-13.0459,73.38477-13.0459,13.70801,0,27.42285,1.31738,40.76465,3.91699l-1.5293,7.85156c-12.83887-2.50098-26.03906-3.76855-39.23535-3.76855-24.28516,0-48.04395,4.22266-70.61523,12.55176Z"/>
<path class="f" d="M417.08008,247.61914c-.46191-.10547-.92773-.23535-1.38477-.3877l-18.6543-6.19824,2.52344-7.5918,18.65723,6.19922c.21094,.07031,.41895,.12891,.62793,.17578l-1.76953,7.80273Z"/>
<rect class="f" height="19.65893" transform="translate(74.83598 543.65801) rotate(-71.58575)" width="7.99957" x="410.4172" y="210.10462"/>
<path class="g" d="M410.54492,433.59814l1.14136-22.62305c.52173-10.34082-2.04297-20.60352-7.36768-29.48389l-18.02612-30.0625c-2.35938-3.93457-7.1145-5.73145-11.48682-4.34033-4.98999,1.58838-7.87866,6.78955-6.58936,11.86475l.52148,2.05371c-1.52686-6.01074-7.80737-9.48779-13.71191-7.59082-5.41016,1.73779-8.53467,7.38525-7.13232,12.89209l.22974,.90234-17.32471-62.1123c-1.58569-5.84766-7.77124-9.15039-13.51294-7.21484-5.44434,1.83545-8.40894,7.69971-6.65869,13.17236l19.92627,68.25586-46.19189-50.45215c-4.17017-4.32227-11.10669-4.28125-15.22559,.08984l-.40332,.42822c-3.81714,4.05078-3.81787,10.37451-.00146,14.42627l51.4873,54.66455,12.21094,29.38818,40.13062,23.89307,22.24609,44.25049h66.54314l-50.80412-62.40186Z"/>
<path class="f" d="M349.28418,387.70801c-.1582-.44141-.29785-.89844-.41504-1.3584l-4.85156-19.05469,7.75195-1.97461,4.85156,19.05371c.05566,.21582,.12012,.42773,.19434,.63477l-7.53125,2.69922Z"/>
<rect class="f" height="19.65974" transform="translate(-79.79553 102.77548) rotate(-14.25161)" width="7.99994" x="367.15823" y="360.70431"/>
<path class="f" d="M112.36035,275.79785l-18.57324-6.44824c-.20801-.07129-.4209-.13477-.63281-.18652l1.88672-7.77344c.45312,.10938,.91211,.24512,1.36523,.40137l18.57715,6.4502-2.62305,7.55664Z"/>
<rect class="f" height="19.65967" transform="translate(-207.70688 286.04797) rotate(-70.81982)" width="8.00087" x="93.32671" y="279.27661"/>
<path class="g" d="M366.8335,16l-12.97925,25.84009-21.10571,8.2251c-9.64746,3.75977-17.95947,10.30298-23.87964,18.79761l-20.0415,28.75781c-2.62329,3.7644-2.31494,8.83838,.74536,12.25708,3.49268,3.90186,9.42065,4.40674,13.52295,1.15161l1.65942-1.31665c-4.85767,3.85498-5.45728,11.00854-1.30859,15.61792,3.80151,4.22363,10.23315,4.76099,14.68237,1.22607l.72998-.57983-49.56763,41.24609c-4.6853,3.84204-5.16479,10.8374-1.04712,15.28247,3.9043,4.21509,10.46826,4.51758,14.7439,.67969l54.10645-46.1355-27.10669,62.8042c-2.23462,5.57471,.64404,11.88599,6.3186,13.85303l.55566,.19263c5.25903,1.823,11.02808-.76636,13.16138-5.90747l28.78003-69.3606,21.80811-23.17676,5.36011-46.39624,43.16617-53.05823-62.30435-.00012Z"/>
<path class="f" d="M320.61719,129.68848l-4.97656-6.26367,15.39453-12.22949c.1748-.13867,.33984-.2832,.49609-.43457l5.55469,5.75781c-.34082,.3291-.70215,.64551-1.07422,.94043l-15.39453,12.22949Z"/>
<rect class="f" height="8.00062" transform="translate(3.28982 216.64368) rotate(-38.42826)" width="19.65944" x="302.62633" y="99.60174"/>
<path class="g" d="M243.59375,168.33252l-51.48755-54.66479-12.21094-29.38794-40.13062-23.89331-22.31445-44.38647H50.86464l50.91466,62.53784-1.14111,22.6228c-.52148,10.34131,2.04297,20.604,7.36768,29.48413l18.02588,30.06226c2.35962,3.93506,7.11475,5.73193,11.48682,4.34033h.00024c4.98999-1.58789,7.87866-6.78906,6.5896-11.86475l-.52148-2.05273c1.52734,6.01025,7.80737,9.48682,13.71167,7.59033,5.41016-1.73804,8.53442-7.38525,7.13232-12.89233l-.22974-.90259,17.32471,62.1123c1.58594,5.8479,7.77124,9.15063,13.51294,7.21509,5.44434-1.83545,8.40894-7.69971,6.65894-13.17212l-19.92627-68.25635,46.19165,50.45264c4.17017,4.32202,11.10669,4.28101,15.22559-.09033l.40332-.42798c3.81714-4.05103,3.81787-10.37427,.00171-14.42603Z"/>
<path class="f" d="M160.55469,146.81543l-4.85059-19.05273c-.05566-.2168-.12109-.42871-.19531-.63574l7.53125-2.69922c.16016,.44629,.2998,.90332,.41602,1.35938l4.85059,19.05371-7.75195,1.97461Z"/>
<rect class="f" height="19.65974" transform="translate(-30.51499 39.11049) rotate(-14.25161)" width="7.99994" x="137.16702" y="131.77169"/>
<path class="i" d="M250.99707,246.99707l-.00098-44.26953c0-1.17676-.51758-2.29395-1.41602-3.05371-.89746-.75879-2.08203-1.08301-3.24609-.8916-28.01758,4.70215-48.35254,28.76562-48.35254,57.21777,0,10.6875,2.93066,21.13379,8.47559,30.20898,.63867,1.0459,1.72266,1.74121,2.94043,1.88574,.1582,.01953,.31543,.02832,.47266,.02832,1.05469,0,2.07422-.41699,2.82812-1.17188l37.12695-37.12598c.75-.75,1.17188-1.76758,1.17188-2.82812Zm-40.16797,30.50977c-3.18359-6.68164-4.84766-14.02441-4.84766-21.50684,0-22.92188,15.30371-42.53906,37.01465-48.31836l.00098,37.6582-32.16797,32.16699Z"/>
<path class="i" d="M265.65527,198.78125c-1.15918-.19141-2.34766,.13184-3.24512,.89258-.89844,.75977-1.41602,1.87695-1.41602,3.05371l.00879,44.27051c0,1.06055,.42188,2.07715,1.17188,2.82715l37.12695,37.12598c.75391,.75488,1.77344,1.17188,2.82812,1.17188,.15723,0,.31445-.00879,.47266-.02832,1.21777-.14453,2.30176-.83984,2.94043-1.88574,5.54492-9.0752,8.47559-19.52148,8.47559-30.20898,0-28.45801-20.33984-52.52246-48.36328-57.21875Zm35.51562,78.72559l-32.16797-32.16699-.00781-37.66016c21.71582,5.77637,37.02344,25.39355,37.02344,48.32031,0,7.48242-1.66406,14.8252-4.84766,21.50684Z"/>
<path class="i" d="M248.52734,270.31055c-1.49512-.62012-3.21582-.27734-4.3584,.86719l-24.42773,24.42871c-.80859,.80762-1.23242,1.92285-1.16504,3.0625,.06738,1.14062,.61914,2.19824,1.51562,2.90625,7.625,6.01562,16.70215,10.04199,26.24805,11.64355,.2207,.03613,.44238,.05469,.66211,.05469,.93945,0,1.85645-.33105,2.58398-.94629,.89844-.76074,1.41602-1.87793,1.41602-3.05469l-.00488-35.26758c0-1.61719-.97461-3.07617-2.46973-3.69434Zm-19.80078,27.62402l14.27148-14.27246,.00293,20.64941c-5.05078-1.35938-9.87891-3.5166-14.27441-6.37695Z"/>
<path class="i" d="M267.83105,271.17773c-1.14258-1.14355-2.86523-1.48633-4.3584-.86719-1.49512,.61914-2.46973,2.07715-2.46973,3.69531v35.2666c0,1.17676,.51758,2.29297,1.41602,3.05371,.72754,.61523,1.64453,.94629,2.58398,.94629,.21973,0,.44141-.01855,.66211-.05469,9.54297-1.60156,18.61816-5.62793,26.24316-11.64258,.89648-.70801,1.44824-1.76562,1.51562-2.90625,.06738-1.13965-.35645-2.25488-1.16504-3.0625l-24.42773-24.42871Zm1.17188,33.13281v-20.64746l14.27051,14.27148c-4.39453,2.86035-9.22168,5.0166-14.27051,6.37598Z"/>
<path class="i" d="M481.75391,259.01074l-40.58789,20.29395-30.02637-5.34863c-.47559-.08691-.96289-.08496-1.43848,.00586l-73.80859,13.83887c-3.38867,.63965-6.69043-1.48633-7.52539-4.82617l-.14258-.57031c-.18677-.74756-.23242-1.50391-.15747-2.24512,.28101-.83496,.55151-1.6748,.80396-2.52246,.0564-.10059,.10791-.20264,.16992-.30078,.9541-1.50781,2.43945-2.53516,4.18457-2.89648l67.3457-11.64453c1.83203-.31641,3.20508-1.85449,3.31152-3.71191,.10742-1.85645-1.08008-3.54199-2.86426-4.06738l-68.21484-20.06641c-.0332-.00879-.06543-.01855-.09863-.02734-3.41992-.91113-5.50293-4.44629-4.64453-7.87891,.44043-1.7627,1.55566-3.22168,3.14062-4.1084,1.58398-.88574,3.41016-1.07422,5.1709-.52051,0,0,80.24609,25.09961,80.70801,25.20508l1.76953-7.80273c-.20898-.04688-19.28516-6.375-19.28516-6.375-3.37988-1.12305-5.3125-4.69922-4.39941-8.14062,.4834-1.82129,1.66211-3.31641,3.31934-4.21191,1.6582-.89551,3.55566-1.05957,5.34277-.46484l18.65234,6.20996,2.52734-7.58984-20.66309-6.87988c-2.95508-.98438-4.63867-4.11133-3.83203-7.12012,.71289-2.65234,3.15332-4.44238,5.87012-4.36523l35.03711,1.05078c9.59082,.28809,18.78613,3.38867,26.59082,8.96777l18.42871,13.1709c.68164,.4873,1.49609,.74609,2.32617,.74609,.15039,0,.30078-.00879,.45215-.02539l7.23535-.82227-.9043-7.94922-5.70801,.64844-17.17773-12.27637c-9.10059-6.50488-19.82031-10.12109-31.00293-10.45605l-35.03711-1.05078c-6.42676-.21875-12.16016,4.03613-13.83691,10.28906-1.03979,3.87842-.31519,7.83447,1.68579,11.00781-3.45703,1.9436-6.01978,5.23047-7.03833,9.06934-.57275,2.15942-.61768,4.33911-.23755,6.41284l-48.44604-14.88647c-2.86865-.90356-5.94971-.87842-8.78442,.02393,1.58887-1.41113,2.88892-3.19116,3.75317-5.27393l28.5-68.68555,21.30664-22.64355c.58984-.62695,.96191-1.42676,1.06055-2.28223l5.22656-45.23633,42.42871-52.15332-6.20508-5.04883-43.16602,53.05859c-.48145,.5918-.7832,1.30762-.87109,2.06543l-5.20801,45.08008-20.89941,22.21094c-.33105,.35254-.5957,.76172-.78125,1.20801l-28.78027,69.36035c-1.32031,3.18066-4.9043,4.79004-8.1582,3.66016l-.55371-.19141c-.83936-.29102-1.59204-.73877-2.22998-1.31299-.40845-.51099-.81934-1.01953-1.24072-1.51978-.11841-.20044-.22803-.40723-.32617-.62231-.74023-1.62402-.78809-3.42871-.13574-5.08789l27.08301-62.75c.73633-1.70703,.19922-3.69824-1.29688-4.80273-1.49414-1.10449-3.55566-1.03125-4.97168,.17383l-54.10645,46.13477c-.02539,.02246-.05176,.04492-.07715,.06738-2.63281,2.36621-6.73145,2.1748-9.13672-.41992-1.23438-1.33301-1.8457-3.06543-1.72168-4.87793,.12402-1.81152,.96582-3.44336,2.39258-4.6123,0,0,64.89551-53.4502,65.23633-53.7793l-5.55469-5.75781c-.15625,.15137-15.89062,12.66406-15.89062,12.66406-2.78711,2.21582-6.83887,1.87793-9.2207-.77051-1.26074-1.40039-1.86719-3.20508-1.70996-5.08105,.15723-1.87744,1.0564-3.55615,2.53125-4.72681l15.40137-12.22046-4.97266-6.26758-17.06055,13.53711c-2.44141,1.9375-5.97852,1.63477-8.05664-.68457-1.83105-2.04688-2.01367-5.0498-.44434-7.30273l20.04297-28.75781c5.48535-7.87207,13.11035-13.87402,22.0498-17.3584l21.10547-8.22559c.92188-.3584,1.67773-1.04688,2.12207-1.93066l12.97949-25.83984-7.14844-3.5918-12.29004,24.4668-19.67285,7.66797c-10.42383,4.06152-19.31348,11.05957-25.70898,20.2373l-20.04199,28.75781c-3.70117,5.31055-3.27148,12.3877,1.0459,17.21191,2.67871,2.9917,6.38623,4.54907,10.1377,4.60962-.26318,3.9563,1.0874,7.89893,3.74316,10.85034,1.4939,1.65991,3.29004,2.896,5.23267,3.7124l-38.95044,32.41162c-3.08203,2.52637-5.00586,6.25684-5.2793,10.2334-.13794,2.01367,.15552,4.021,.82715,5.89331-2.08081-.17163-4.17871-.28198-6.30273-.28198-2.14014,0-4.25366,.11133-6.34961,.2854,1.69434-4.95117,.65625-10.63501-3.14453-14.67017l-50.98633-54.13184-11.93066-28.71387c-.33008-.79395-.90723-1.46191-1.64746-1.90137l-39.12695-23.2959L121.02441,14.20312l-7.14844,3.59375,22.31445,44.38672c.34277,.68066,.87305,1.25,1.52832,1.63965l38.99121,23.21484,11.70312,28.16504c.18555,.44629,.4502,.85547,.78125,1.20703l51.4873,54.66406c2.36133,2.50781,2.36133,6.43457,0,8.94043l-.4043,.42871c-1.23438,1.31055-2.90527,2.03711-4.70508,2.04785-1.78125,.01953-3.45117-.68359-4.69824-1.95898l-46.15234-50.40918c-1.25586-1.37109-3.29004-1.69922-4.91211-.78418-1.62109,.91211-2.39941,2.82129-1.87793,4.60645l19.92578,68.25586c.00977,.03223,.01953,.06445,.03027,.09766,1.07715,3.37012-.77344,7.0332-4.12598,8.16406-1.72363,.5791-3.55176,.42773-5.1543-.42773-1.60156-.85547-2.74512-2.29102-3.22852-4.07129,0,0-22.17871-81.08984-22.33887-81.53613l-7.53125,2.69922c.07422,.20703,5.0459,19.68848,5.0459,19.68848,.87891,3.45117-1.08887,7.00684-4.47949,8.0957-1.79395,.57617-3.68945,.39062-5.33691-.52051-1.64746-.91211-2.81055-2.41992-3.27441-4.24609l-4.83984-19.05469-7.75391,1.96875,5.36133,21.1084c.7666,3.01953-.95801,6.12402-3.92578,7.06934-2.61523,.83203-5.43164-.23145-6.84277-2.58594l-18.02637-30.06348c-4.93457-8.22754-7.28711-17.6416-6.80273-27.22461l1.14062-22.62305c.0498-.98828-.26855-1.95898-.89355-2.72656L53.96582,13.47461l-6.20312,5.05078,49.94434,61.34668-1.06348,21.08691c-.56445,11.17285,2.17871,22.14844,7.93164,31.74219l18.02637,30.0625c2.57031,4.28711,7.10938,6.75781,11.88574,6.75781,1.40918,0,2.83984-.21484,4.24512-.66211,3.82373-1.21753,6.76196-3.96094,8.354-7.35547,2.14673,1.13965,4.53418,1.72754,6.93408,1.72754,1.5166,0,3.03711-.23242,4.50098-.70312,2.12744-.68311,3.98706-1.82178,5.52783-3.26123l13.6167,48.81787c.68677,2.53516,2.06738,4.81519,3.92822,6.61963-1.97314-.52832-4.07983-.66162-6.21143-.2915l-73.2666,12.72559-30.53516-5.86328c-.84473-.16211-1.71973-.04688-2.49512,.32715l-40.99805,19.81934-11.61816-1.37402-.93945,7.94531,12.77734,1.51074c.75684,.08984,1.52441-.04004,2.21094-.37109l40.85645-19.75098,29.95117,5.75195c.47363,.09082,.96094,.09473,1.43848,.0127l73.9873-12.85059c3.38867-.59473,6.66895,1.57324,7.45996,4.9248l.13477,.57324c.20264,.85693,.22803,1.72363,.08936,2.56274-.23438,.6521-.4519,1.31226-.66895,1.97241-.09351,.17651-.19263,.35083-.30322,.52051-.97461,1.49512-2.47363,2.50293-4.22363,2.84082l-67.49609,10.74316c-1.83691,.29199-3.22949,1.81152-3.36133,3.66699-.13086,1.85547,1.0332,3.55664,2.81055,4.10547l67.94043,20.97656c.03223,.00977,.06445,.01953,.09766,.02832,3.40723,.95801,5.44336,4.52051,4.53906,7.94238-.46387,1.75586-1.59863,3.19922-3.19434,4.06445-1.59766,.86719-3.42578,1.02832-5.17871,.45117,0,0-79.90332-26.16992-80.35645-26.2793l-1.88672,7.77344c.21191,.05176,19.20508,6.63477,19.20508,6.63477,3.36426,1.16895,5.24805,4.77051,4.28906,8.2002-.50684,1.81348-1.70508,3.29297-3.37402,4.16602-1.6709,.87305-3.56934,1.01465-5.34863,.39355l-18.56836-6.45898-2.62891,7.55664,20.56934,7.15527c2.94238,1.02344,4.58301,4.17285,3.73633,7.16992-.74609,2.64258-3.16406,4.4209-5.92871,4.28613l-35.01855-1.51855c-9.58691-.41602-18.73926-3.63965-26.46973-9.32227l-18.25098-13.41699c-.79688-.58594-1.78711-.85254-2.76758-.75781l-6.99707,.70117,.79688,7.96094,5.46777-.54785,17.0127,12.50586c9.0127,6.62598,19.68359,10.38379,30.86133,10.86914l35.01855,1.51855c.20703,.00879,.41211,.01367,.61816,.01367,6.21191,0,11.65137-4.08594,13.35645-10.11621,1.09155-3.86377,.41943-7.8291-1.53857-11.02881,3.48291-1.89795,6.08936-5.1499,7.15869-8.9751,.60156-2.15137,.67578-4.33057,.32349-6.40918l48.24194,15.53223c1.47363,.48633,3.00781,.72656,4.53809,.72656,2.40039,0,4.79297-.59082,6.93262-1.75195,1.5769-.85498,2.95581-2.00488,4.10303-3.3501,.5105,.9834,1.04199,1.95312,1.59351,2.91064-5.21851,.52295-9.96069,3.84961-12.04028,9.00195l-27.82129,68.96191-21.08398,22.85156c-.58398,.63281-.94824,1.4375-1.03809,2.29297l-4.78125,45.28613-40.90527,51.30078,6.25586,4.98828,41.63281-52.21387c.47461-.59668,.76953-1.31641,.84961-2.07422l4.76465-45.12891,20.68066-22.41504c.32812-.35547,.58887-.76758,.77051-1.2168l28.09473-69.63965c1.29004-3.19336,4.85449-4.83496,8.11914-3.74316l.55957,.18848c1.70605,.57324,3.06641,1.78613,3.83008,3.41699,.75684,1.61621,.82227,3.41992,.1875,5.08496l-26.46582,63.01562c-.7207,1.71484-.16406,3.69922,1.34277,4.79004,1.50879,1.0918,3.56836,.99805,4.96973-.22363l53.65039-46.66602c.02539-.02148,.05078-.04492,.07617-.06738,2.61133-2.39062,6.71094-2.24023,9.1416,.33203,1.24707,1.32031,1.875,3.04492,1.76855,4.8584-.10645,1.8125-.93164,3.45312-2.34668,4.63672,0,0-64.36719,54.08691-64.7041,54.41895l5.61133,5.70117c.15527-.15234,15.76465-12.81836,15.76465-12.81836,2.7666-2.24219,6.81934-1.94531,9.22852,.67969,1.27344,1.3877,1.89844,3.18652,1.75977,5.06445-.13867,1.87695-1.02002,3.56299-2.48145,4.74854l-15.2832,12.37451,5.0332,6.2168,16.92773-13.7041c2.41895-1.96094,5.96191-1.69238,8.06152,.60742,1.85254,2.02734,2.06445,5.02832,.5166,7.29688l-19.75781,28.95312c-5.40918,7.92578-12.97559,14.00293-21.87988,17.57422l-21.02344,8.43164c-.91797,.36816-1.66699,1.06445-2.10254,1.95312l-12.4043,25.31348,7.18359,3.51953,11.72852-23.93262,19.59668-7.85938c10.38184-4.16406,19.20215-11.25,25.50879-20.49023l19.75781-28.95312c3.64941-5.34863,3.14844-12.42188-1.21582-17.20117-2.70801-2.96436-6.43115-4.48438-10.18213-4.5083,.22437-3.96045-1.16431-7.88916-3.8501-10.81494-1.51074-1.646-3.32275-2.8584-5.27466-3.65527l38.63599-32.79883c3.05762-2.55762,4.94434-6.30664,5.17773-10.28613,.11035-1.87891-.16406-3.74609-.75977-5.50293,2.02417,.16211,4.06372,.26855,6.12891,.26855,2.26929,0,4.51025-.11865,6.72949-.31445-1.77417,4.98926-.75342,10.75488,3.08887,14.83496l50.98633,54.13184,11.93164,28.71387c.33008,.79492,.90723,1.46191,1.64746,1.90137l39.12598,23.29688,21.72168,43.20703,7.14844-3.59375-22.24609-44.25c-.34277-.68066-.87305-1.25-1.52832-1.63965l-38.99023-23.21582-11.7041-28.16504c-.18555-.44629-.4502-.85547-.78125-1.20703l-51.4873-54.66406c-2.36133-2.50684-2.36035-6.43457,0-8.94043l.4043-.42871c1.23438-1.31055,2.90625-2.03711,4.70605-2.04785h.04004c1.76953,0,3.41992,.69434,4.65723,1.95898l46.15234,50.40918c1.25488,1.37012,3.28906,1.69727,4.91211,.78418,1.62109-.91211,2.39941-2.82129,1.87793-4.60645l-19.92578-68.25586c-.00977-.03223-.01953-.06445-.03027-.09766-1.07715-3.37109,.77344-7.03223,4.12793-8.16309,1.71973-.58008,3.5498-.42871,5.15234,.42676s2.74609,2.29199,3.22949,4.07227c0,0,22.17969,81.09375,22.33789,81.53516l7.53125-2.69922c-.07422-.20703-5.0459-19.68848-5.0459-19.68848-.87793-3.4502,1.08984-7.00684,4.48047-8.0957,1.79492-.57617,3.68848-.3916,5.33594,.52148,1.64404,.90967,2.80469,2.41211,3.271,4.23047l4.84424,19.06934,7.75391-1.96875-4.83984-19.05566-.00586-.01855-.5166-2.03418c-.7666-3.01953,.95801-6.12402,3.92578-7.06836,2.61914-.83301,5.43164,.23145,6.84375,2.58496l18.02539,30.06348c4.93457,8.22754,7.28711,17.6416,6.80371,27.22559l-1.1416,22.62305c-.0498,.9873,.26855,1.95898,.89355,2.72656l50.80469,62.40137,6.20312-5.05078-49.83398-61.20898,1.06445-21.08887c.56348-11.17285-2.17969-22.14941-7.93262-31.74219l-18.02637-30.06348c-3.3291-5.5498-9.95801-8.05566-16.12988-6.09375-3.82593,1.21777-6.76538,3.96289-8.35718,7.35986-3.50244-1.8623-7.65161-2.24365-11.43286-1.02979-2.12744,.68359-3.98706,1.82227-5.52783,3.26172l-13.61572-48.81738c-1.04297-3.84766-3.6582-7.13086-7.17383-9.00781-1.6709-.89209-3.49316-1.42725-5.34985-1.61865,.50391-.88672,.98901-1.78418,1.45776-2.69287,2.72021,3.22266,6.76611,5.18115,11.09619,5.18066,.88379,0,1.78027-.08105,2.67773-.24902l73.08984-13.7041,30.61133,5.4541c.8457,.14941,1.71973,.02344,2.49023-.36035l40.72949-20.36523,11.2959,1.18262,.83203-7.95703-12.45703-1.30371c-.75781-.0791-1.52344,.05957-2.20508,.40039Zm-99.48242-1.16992l-50.4668,8.72559c-.03418,.00586-.06836,.0127-.10254,.01953-.15088,.03027-.29492,.07715-.44409,.11182,.49487-3.49756,.76733-7.06592,.76733-10.69775,0-4.53491-.42188-8.9707-1.18677-13.28955l51.43286,15.13037Zm-201.44873,9.48975l-50.84619-15.69775,50.5791-8.05078,.10254-.01758c.12427-.02319,.24268-.06104,.36597-.08716-.67896,4.0769-1.04956,8.25635-1.04956,12.52271,0,3.8501,.29297,7.63281,.84814,11.33057Zm145.78857-116.08545l-20.2959,47.02344c-.01367,.03223-.02734,.06445-.04004,.09668-.06885,.17188-.11719,.34741-.1792,.52051-6.0127-5.28027-12.85254-9.63916-20.3125-12.82788l40.82764-34.81274Zm-136.18359-3.04297l34.58496,37.77539c.02344,.02539,.04785,.05078,.07227,.07617,.11865,.12305,.24902,.22998,.37109,.34839-7.38477,3.25366-14.15869,7.64136-20.09473,12.95361l-14.93359-51.15356Zm-.61963,70.46997c-.19385,.34253-.3999,.677-.58887,1.02295-.3877-.48608-.79443-.95435-1.23828-1.38428,.60205,.15796,1.21143,.28149,1.82715,.36133Zm-4.08154,142.34644l19.83203-47.2207c.01367-.03223,.02734-.06445,.04004-.09668,.08496-.21826,.146-.44043,.22021-.66064,6.00391,5.28857,12.8374,9.65381,20.29028,12.85303l-40.38257,35.125Zm136.16992,2.91504l-34.58496-37.77539c-.02344-.02539-.04688-.05078-.07129-.07617-.18384-.19043-.38232-.36035-.57446-.53906,7.42993-3.28955,14.24341-7.72266,20.19995-13.0957l15.03076,51.48633Zm-.51636-89.19629c-.53662,1.15283-.9209,2.35547-1.13647,3.58838-9.26147,26.57324-34.55322,45.69971-64.24365,45.69971-37.50977,0-68.02539-30.51562-68.02539-68.02539,0-7.22241,1.1416-14.18091,3.23633-20.7168,.40527-.88599,.71655-1.80078,.93311-2.7373,9.5752-25.98779,34.58496-44.57129,63.85596-44.57129,20.70776,0,39.271,9.31177,51.75781,23.95508,.49316,.729,1.04785,1.40405,1.6582,2.02441,9.13647,11.58252,14.60938,26.18262,14.60938,42.0459,0,6.49902-.9353,12.78027-2.64526,18.7373Zm1.46875-54.92114c-.26636-.48999-.55591-.96558-.83276-1.44897,.93628-.11255,1.85498-.31396,2.74512-.60205-.70142,.62305-1.34473,1.30762-1.91235,2.05103Z"/>
<path class="i" d="M84.77148,130.97656c-18.48926,25.28027-30.88867,53.62988-36.85449,84.25879l7.85156,1.5293c5.74023-29.4668,17.6709-56.74121,35.45996-81.06543l-6.45703-4.72266Z"/>
<path class="i" d="M111.28125,410.92285l5.46289-5.8457c-23.20703-21.6875-41.25488-48.81934-52.19238-78.46191l-7.50586,2.76953c11.36719,30.80762,30.12207,59.00293,54.23535,81.53809Z"/>
<path class="i" d="M256,460c-13.19629,0-26.39648-1.26855-39.23535-3.76855l-1.5293,7.85156c13.3418,2.59961,27.05664,3.91699,40.76465,3.91699,28.25098,0,55.68555-5.4668,81.54004-16.25l-3.08008-7.38281c-24.87305,10.37305-51.27148,15.63281-78.45996,15.63281Z"/>
<path class="i" d="M427.22852,381.02246c18.48926-25.2793,30.88867-53.62793,36.85449-84.25781l-7.85156-1.5293c-5.74023,29.4668-17.6709,56.74121-35.45996,81.06445l6.45703,4.72266Z"/>
<path class="i" d="M402.76953,103.02051l-5.53906,5.77148c22.23828,21.3418,39.60352,47.82617,50.21777,76.59277l7.50586-2.76953c-11.03125-29.89648-29.07617-57.41992-52.18457-79.59473Z"/>
<path class="i" d="M256,52c13.19629,0,26.39648,1.26758,39.23535,3.76855l1.5293-7.85156c-13.3418-2.59961-27.05664-3.91699-40.76465-3.91699-25.2334,0-49.92383,4.38965-73.38477,13.0459l2.76953,7.50586c22.57129-8.3291,46.33008-12.55176,70.61523-12.55176Z"/>
</g>
</g>
<g id="d"/>
</svg>