<?xml version="1.0" ?>
<!-- Uploaded to: SVG Repo, www.svgrepo.com, Generator: SVG Repo Mixer Tools -->
<svg width="800px" height="800px" viewBox="0 0 512 512" xmlns="http://www.w3.org/2000/svg">
<defs>
<style>.e{fill:#f4c762;}.f{fill:#eab84b;}.g{fill:#ffd892;}.h{fill:#318c7a;}.i{fill:#bebebe;}.j{fill:#dfdfdf;}.k{fill:#41a08e;}.l{fill:#365650;}</style>
</defs>
<g id="a"/>
<g id="b"/>
<g id="c">
<g>
<rect class="k" height="79.99991" transform="translate(1.7746 199.3625) rotate(-45)" width="127.99997" x="177.53914" y="57.53917"/>
<rect class="e" height="232" width="336" x="88" y="120"/>
<rect class="g" height="168" width="256" x="128" y="152"/>
<rect class="f" height="48" width="368" x="72" y="72"/>
<polygon class="k" points="291.89355 178.32812 276.60815 224.28882 223.05884 212.36719 219.38892 228.85156 168.45117 196.52979 128 260.2793 128 322.4563 149.34424 336 358.53223 336 366.51318 334.35522 361.48535 309.95947 379.62988 291.81494 384 293.26831 384 287.44482 384 249.28076 384 208.95996 291.89355 178.32812"/>
<path class="h" d="M377.91699,248.85449l5.65625-5.65625-34.23145-34.23242c-.75-.75-1.76758-1.17188-2.82812-1.17188s-2.07812,.42188-2.82812,1.17188l-21.39551,21.39551-41.48535-9.23633-1.73828,7.80859,36.52051,8.13086-27.73706,27.73706-39.10425,8.05908-32.63965-10.85498,6.47119-29.06714-7.80859-1.73828-6.29321,28.26782-30.31909-10.08325c-2.0957-.69434-4.36035,.43652-5.05859,2.5332l-22.10742,66.47363,7.5918,2.52539,20.84473-62.67871,53.66602,17.84814-8.90039,1.83447c-2.16309,.44629-3.55566,2.56152-3.11035,4.72559l7.86426,38.16113,7.83594-1.61523-7.05762-34.24316,117.53027-24.22266,11.58887,56.23145,7.83594-1.61523-12.39648-60.14844c-.44531-2.16406-2.56152-3.55078-4.72559-3.11035l-47.4585,9.78076,44.41455-44.41357,31.40332,31.40332Z"/>
<path class="i" d="M256,320h-48l-40,8L16,232v112l120,48,6.46533,32.32666c.96826,4.84155,4.11768,8.96484,8.53394,11.17285l105.00073,52.50049,80-40-80-128Z"/>
<path class="j" d="M344,328l-40-8h-48l-56,56c18.12329,18.12329,47.07593,19.43652,66.76562,3.02856l13.23438-11.02856,56,80,25.00073-12.50049c4.41626-2.20801,7.56567-6.3313,8.53394-11.17285l6.46533-32.32666,120-48v-112l-152,96Z"/>
<path class="l" d="M374.51465,388.28613c-1.25488,.50195-2.17188,1.60352-2.43652,2.92969l-6.46484,32.3252c-.73242,3.6582-3.06543,6.71289-6.40137,8.38086l-21.91357,10.95703-54.021-77.17285c-.64258-.91699-1.63867-1.52246-2.74805-1.6709-1.11328-.14941-2.23047,.1748-3.08984,.8916l-13.23438,11.02832c-17.18457,14.32227-41.63281,14.07031-58.42773-.0752l51.87988-51.87988h45.94629l39.6123,7.92188c1.00488,.2041,2.05273,.00781,2.91992-.54004l152-96-4.27148-6.76367-65.86426,41.59814V124h12c2.20898,0,4-1.79102,4-4v-48c0-2.20898-1.79102-4-4-4h-131.83398l-46.82812-46.82812c-1.56055-1.5625-4.0957-1.5625-5.65625,0l-46.82812,46.82812H72c-2.20898,0-4,1.79102-4,4v48c0,2.20898,1.79102,4,4,4h12v146.21631L18.13574,228.61816l-4.27148,6.76367,152,96c.64355,.40625,1.38477,.61816,2.13574,.61816,.26172,0,.52441-.02539,.78418-.07812l39.6123-7.92188h37.94727l-49.17188,49.17188c-1.5625,1.56152-1.5625,4.09473,0,5.65625,19.7168,19.7168,50.73535,21.12305,72.1543,3.27344l9.8916-8.24316,50.84619,72.6377-74.06396,37.03223-103.21191-51.60645c-3.33594-1.66797-5.66895-4.72266-6.40137-8.37988l-6.46484-32.32617c-.26465-1.32617-1.18164-2.42773-2.43652-2.92969l-120-48-2.9707,7.42773,117.98828,47.19531,6.04004,30.20215c1.21973,6.0957,5.10742,11.18652,10.66699,13.9668l105.00098,52.5c.56348,.28125,1.17578,.42188,1.78906,.42188s1.22559-.14062,1.78906-.42188l105.00098-52.5c5.55957-2.78027,9.44727-7.87109,10.66699-13.96777l6.04004-30.20117,117.98828-47.19531-2.9707-7.42773-120,48Zm-31.29883-64.52246l-38.43164-7.68555c-.25781-.05176-.52051-.07812-.78418-.07812h-67.87573l-6.39966-31.05078,117.53027-24.22266,11.03003,53.52002-15.06909,9.51709Zm3.29785-106.3125l33.48633,33.48535v49.59521l-14.48706,9.14966-11.22974-54.48706c-.44531-2.16406-2.56152-3.55078-4.72559-3.11035l-47.4585,9.78076,44.41455-44.41357Zm2.82812-8.48535c-1.56055-1.5625-4.0957-1.5625-5.65625,0l-21.39551,21.39551-40.4873-9.01367,12.62402-37.96191,85.57324,28.45972v27.77856l-30.6582-30.6582Zm30.6582-5.552l-86.84375-28.88159c-1.00781-.33594-2.10742-.25586-3.05371,.21973-.94922,.47461-1.66992,1.30762-2.00488,2.31348l-14.14526,42.53442-50.02466-11.13696c-1.03418-.23242-2.12012-.04004-3.01562,.5293-.89453,.56836-1.52734,1.4707-1.75781,2.50586l-2.43188,10.92383-46.12085-29.26465c-1.86621-1.18359-4.33691-.63184-5.52051,1.2334l-33.08105,52.13281v-90.52344h248v47.41382Zm-248,58.04175l37.69238-59.40088,45.18188,28.66943-6.39893,28.7439-30.31909-10.08325c-2.0957-.69434-4.36035,.43652-5.05859,2.5332l-20.49512,61.62573-20.60254-13.01196v-39.07617Zm94.09375-44.31494l89.49292,19.92407-27.73682,27.73682-39.10425,8.05908-32.63965-10.85498,9.98779-44.86499ZM258.50977,29.65723l38.34375,38.34277h-76.6875l38.34375-38.34277ZM76,76H436v40H76v-40Zm16,48H420v151.2688l-32,20.21045V152c0-2.20898-1.79102-4-4-4H128c-2.20898,0-4,1.79102-4,4v143.47925l-32-20.21045V124Zm116,192c-.26367,0-.52637,.02637-.78418,.07812l-38.43164,7.68555-9.21362-5.81909,19.8562-59.7063,53.66602,17.84814-8.90039,1.83447c-2.16309,.44629-3.55566,2.56152-3.11035,4.72559l6.87354,33.35352h-19.95557Z"/>
</g>
</g>
<g id="d"/>
</svg>