<?xml version="1.0" ?>
<!-- Uploaded to: SVG Repo, www.svgrepo.com, Generator: SVG Repo Mixer Tools -->
<svg width="800px" height="800px" viewBox="0 0 512 512" xmlns="http://www.w3.org/2000/svg">
<defs>
<style>.e{fill:#f4c762;}.f{fill:#eab84b;}.g{fill:#f4f4f4;}.h{fill:#ededed;}.i{fill:#2f8474;}.j{fill:#cecece;}.k{fill:#bebebe;}.l{fill:#dfdfdf;}.m{fill:#41a08e;}.n{fill:#365650;}.o{fill:#6e6e6e;}</style>
</defs>
<g id="a"/>
<g id="b"/>
<g id="c">
<g>
<path class="f" d="M392,488H71.99997c-17.67309,0-31.99997-14.32687-31.99997-31.99997v-.00006c0-17.67309,14.32687-31.99997,31.99997-31.99997H392l-.00002,.00003c-10.07222,20.14445-10.07222,43.85549,0,63.99994l.00002,.00003Z"/>
<rect class="e" height="8" width="80" x="72" y="452"/>
<path class="e" d="M376,352H60c-19.88232,0-36,16.11768-36,36h0c0,19.88232,16.11768,36,36,36H376l-2.71265-6.78174c-8.45166-21.12939-7.4646-44.86377,2.71265-65.21826Z"/>
<rect class="f" height="8" width="96" x="56" y="372"/>
<rect class="f" height="8" width="96" x="56" y="396"/>
<path class="k" d="M433.54395,62.28027c-.87842-8.12354-7.73657-14.28027-15.90747-14.28027h-25.63647l-32.84473,296h104.84473l-30.45605-281.71973Z"/>
<path class="h" d="M414.22754,48H118.4043c-8.18823,0-15.05493,6.18188-15.91211,14.32495l-30.49219,289.67505H400l30.1394-286.3252c.99438-9.44678-6.41284-17.6748-15.91187-17.6748Z"/>
<path class="j" d="M430.1394,65.6748c.99438-9.44678-6.41284-17.6748-15.91187-17.6748H118.4043c-8.18823,0-15.05493,6.18188-15.91211,14.32495l-3.54468,33.67505H426.94727l3.19214-30.3252Z"/>
<path class="k" d="M150.35154,33.89077l-4.05443,24.32657c-1.20248,7.21485,4.36129,13.78266,11.67566,13.78266h.00002c5.78625,0,10.72441-4.18325,11.67566-9.89077l4.05443-24.32657c1.20248-7.21485-4.36129-13.78266-11.67566-13.78266h-.00002c-5.78625,0-10.72441,4.18325-11.67566,9.89077Z"/>
<polygon class="m" points="232.49902 177.85059 227.43262 171.65918 208.42065 187.2146 190.49902 172.87695 185.50098 179.12305 202.08984 192.39429 185.4668 205.99512 190.5332 212.18652 208.47754 197.50464 226.69043 212.0752 231.68848 205.8291 214.80835 192.32471 232.49902 177.85059"/>
<path class="k" d="M368.48467,33.89077l-4.05443,24.32657c-1.20248,7.21485,4.36129,13.78266,11.67566,13.78266h.00002c5.78625,0,10.72441-4.18325,11.67566-9.89077l4.05443-24.32657c1.20248-7.21485-4.36129-13.78266-11.67566-13.78266h-.00002c-5.78625,0-10.72441,4.18325-11.67566,9.89077Z"/>
<rect class="g" height="8" width="112" x="208" y="68"/>
<path class="j" d="M340.01709,96h-8.03491l-5.625,60h-71.96484l5.62476-60h-8.03467l-5.625,60h-71.96509l5.62476-60h-8.03467l-5.625,60H92.63159l-.84204,8h73.81787l-5.25,56H85.89478l-.84204,8h74.55469l-5.25,56H79.15796l-.84204,8h75.2915l-5.58984,59.62695,3.98242,.37305h4.01733l5.625-60h71.96558l-5.625,60h8.03491l5.62476-60h71.96484l-5.625,60h8.03467l5.625-60h84.67383l.84204-8h-84.76587l5.25-56h85.41064l.84204-8h-85.50269l5.25-56h86.14746l.84204-8h-86.2395l5.625-60Zm-105.65918,188h-71.96558l5.25-56h71.96533l-5.24976,56Zm5.99976-64h-71.96533l5.25-56h71.96509l-5.24976,56Zm73.99976,64h-71.96484l5.25-56h71.96484l-5.25,56Zm6-64h-71.96484l5.24976-56h71.96484l-5.24976,56Z"/>
<path class="m" d="M400,312c-48.60107,0-88,39.39893-88,88s39.39893,88,88,88,88-39.39893,88-88-39.39893-88-88-88Zm-66,88c0-32.70312,23.78491-59.85059,54.99976-65.0874l.00024,54.0874-45.36133,45.36084c-6.11475-10.00879-9.63867-21.77344-9.63867-34.36084Zm25.15527,51.84668l29.84473-29.84668,.00659,43.08838c-11.14575-1.86865-21.34424-6.53076-29.85132-13.2417Zm51.84497,13.24072l-.00024-43.0874,29.84521,29.84619c-8.50537,6.70996-18.7019,11.37158-29.84497,13.24121Zm45.36108-30.72705l-45.36133-45.36035-.01123-54.08936c31.22021,5.23193,55.01123,32.38232,55.01123,65.08936,0,12.5874-3.52368,24.35156-9.63867,34.36035Z"/>
<path class="i" d="M217.46289,393.9541l-7.17383-4.75781c3.81055-30.3374-5.74414-61.68359-27.83887-85.0459l-5.8125,5.49609c13.93579,14.73535,22.46143,32.91211,25.3584,51.88037l-2.06641,1.95361c-9.54883,9.03125-20.57812,16.08691-32.77246,20.9668l-.1748,.06934,2.94922,7.43555,.18652-.07324c12.13037-4.854,23.16626-11.72412,32.88232-20.39648,.59204,12.27686-1.15967,24.68506-5.30591,36.54004l-8.11646,.38672c-8.80664,.41895-17.38086,3.76562-24.14453,9.42188l5.13281,6.13672c5.43262-4.54395,12.31934-7.23145,19.39258-7.56836l4.45972-.2124c-1.83203,4.02051-3.94092,7.95898-6.36108,11.77588l-22.87695,36.08105,6.75586,4.2832,22.87695-36.08105c1.36328-2.15039,2.62109-4.34082,3.81177-6.55518l.98511,2.23877c4.08008,9.27246,5.71875,19.50586,4.74023,29.59082l7.96289,.77344c1.11035-11.44727-.75-23.06152-5.38086-33.58691l-3.76562-8.55762c2.47388-5.97314,4.35083-12.10645,5.66699-18.31787l4.20703,2.78955c11.17578,7.41211,17.72168,19.84277,17.50977,33.25098l7.99805,.12695c.25586-16.14844-7.62695-31.11816-21.08594-40.04492Z"/>
<polygon class="o" points="214.21494 318.58646 196.52808 345.11621 222.60544 333.94035 214.21494 318.58646"/>
<path class="k" d="M345.93087,299.67431c-.89055-2.89029-4.80674-13.40637-6.07228-16.28898l-5.11092-11.64155s-34.68784,39.31289-50.37709,57.09467c-4.28289,4.85411-10.23827,7.85626-16.68572,8.447l-3.68985,.31588,4.46899,4.50259c9.58926,9.66136,25.20092,9.70073,34.83879,.08787l42.62808-42.51748Z"/>
<path class="l" d="M288.54126,399.18066l-.19312-1.03662c53.23535,1.15576,94.06396-54.39404,70.95312-107.03516l-5.11084-11.6416s-34.68774,39.31299-50.37695,57.09473c-4.80029,5.44043-11.70166,8.5542-19.04175,8.5542h-.36597c-10.90137,0-20.12231-8.0625-21.57666-18.8667l-.05957-.44189c1.66797-3.51123,2.60132-7.43896,2.60132-11.58496,0-15.35254-12.79858-27.71631-28.30859-27.00244-13.73315,.63184-24.92847,11.69531-25.71021,25.42041-.6521,11.44922,5.8252,21.46338,15.40161,26.0127-11.19653,19.42285-6.97607,44.06592,10.04565,58.65576l24.70996,21.18018,2.33643,14.01855c3.50342,21.02148,13.48779,40.42285,28.55713,55.49219h.00024c24.09082-4.81836,44.1189-21.47754,53.24316-44.28857l.8208-2.05225-15.01318-2.30957c-21.21655-3.26416-38.25586-19.21387-42.9126-40.16895Z"/>
<rect class="o" height="8" width="11.12598" x="226.75391" y="306.36133"/>
<rect class="n" height="8" width="112" x="208" y="68"/>
<polygon class="n" points="232.49902 177.85059 227.43262 171.65918 208.42065 187.2146 190.49902 172.87695 185.50098 179.12305 202.08984 192.39429 185.4668 205.99512 190.5332 212.18652 208.47754 197.50464 226.69043 212.0752 231.68848 205.8291 214.80835 192.32471 232.49902 177.85059"/>
<rect class="n" height="8" width="96" x="56" y="372"/>
<rect class="n" height="8" width="96" x="56" y="396"/>
<rect class="n" height="8" width="80" x="72" y="452"/>
<path class="n" d="M467.3042,337.34961l-29.78369-275.49902c-1.09961-10.17676-9.64746-17.85059-19.88379-17.85059h-22.78223l.92676-5.56055c.7666-4.60059-.52246-9.28027-3.53711-12.83984-3.01562-3.55859-7.41992-5.59961-12.08398-5.59961-7.77344,0-14.34375,5.56543-15.62109,13.2334l-1.79419,10.7666H176.72168l.92676-5.56055c.7666-4.60059-.52246-9.28027-3.53711-12.83984-3.01562-3.55859-7.41992-5.59961-12.08398-5.59961-7.77344,0-14.34375,5.56543-15.62109,13.2334l-1.79443,10.7666h-26.20752c-10.26465,0-18.81543,7.69824-19.89062,17.90625l-30.11426,286.09375h-8.39941c-22.05566,0-40,17.94434-40,40,0,18.89258,13.1709,34.75732,30.81006,38.92236-8.96875,6.55371-14.81006,17.14404-14.81006,29.07764,0,19.85059,16.14941,36,36,36h192v-8H72c-15.43945,0-28-12.56055-28-28s12.56055-28,28-28h80v-8H60c-17.64453,0-32-14.35547-32-32s14.35547-32,32-32h108v-8h-11.60767l5.25-56h38.35767v-8h-37.60767l5.25-56h71.96533l-4.09009,43.62695,7.96484,.74609,4.15991-44.37305h71.96533l-2.59009,27.62695,7.96484,.74609,2.65991-28.37305h81.38794l-8.42163,80.00781c-.20312-.00146-.40527-.00781-.60864-.00781-10.55273,0-20.83789,1.76367-30.65308,5.23633-.88843-8.02637-2.99585-16.021-6.38306-23.73633l-5.11133-11.6416c-.54883-1.25-1.69727-2.13379-3.0459-2.34375-1.35156-.20996-2.71191,.2832-3.61523,1.30566l-6.60986,7.49121c-.34082-.84912-.69214-1.69482-1.06006-2.5332l-5.11035-11.6416c-.54883-1.25098-1.69824-2.13477-3.04688-2.34473-1.35254-.21094-2.71191,.2832-3.61523,1.30566l-50.37793,57.09473c-3.11621,3.53125-7.26953,5.88965-11.86353,6.78857-1.27661-1.9624-2.19263-4.18652-2.61108-6.59619,1.64258-3.8457,2.47461-7.93066,2.47461-12.16211,0-8.55957-3.41016-16.53027-9.60156-22.44336-6.18848-5.91113-14.32812-8.94238-22.89062-8.55566-15.66211,.7207-28.62891,13.54199-29.52051,29.18945-.16138,2.83594,.06104,5.62305,.62988,8.30273l-7.00464,10.50684c-4.62817-9.74219-10.80444-18.8999-18.53345-27.07227l-5.8125,5.49609c8.30347,8.77979,14.677,18.78564,19.09814,29.44775l-2.53564,3.80322c-.98242,1.47266-.87891,3.41602,.25293,4.77637,.77734,.93555,1.91406,1.44238,3.07617,1.44238,.53027,0,1.06543-.10547,1.57422-.32324l.94336-.4043c1.29126,4.31348,2.27197,8.7041,2.94922,13.13818l-2.06641,1.95361c-9.54883,9.03125-20.57812,16.08691-32.77246,20.9668l-.1748,.06934,2.94922,7.43555,.18652-.07324c12.13037-4.854,23.16626-11.72412,32.88232-20.39648,.59204,12.27686-1.15967,24.68506-5.30591,36.54004l-8.11646,.38672c-8.80664,.41895-17.38086,3.76562-24.14453,9.42188l5.13281,6.13672c5.43262-4.54395,12.31934-7.23145,19.39258-7.56836l4.45972-.2124c-1.83203,4.02051-3.94092,7.95898-6.36108,11.77588l-22.87695,36.08105,6.75586,4.2832,22.87695-36.08105c1.36328-2.15039,2.62109-4.34082,3.81177-6.55518l.98511,2.23877c4.08008,9.27246,5.71875,19.50586,4.74023,29.59082l7.96289,.77344c1.11035-11.44727-.75-23.06152-5.38086-33.58691l-3.76562-8.55762c2.47388-5.97314,4.35083-12.10645,5.66699-18.31787l4.20703,2.78955c11.17578,7.41211,17.72168,19.84277,17.50977,33.25098l7.99805,.12695c.25586-16.14844-7.62695-31.11816-21.08594-40.04492l-7.17383-4.75781c1.85498-14.76855,.55908-29.77441-3.83057-43.98389l13.67627-5.86133c.41846,.30273,.8374,.60498,1.27344,.88818-9.71191,20.44922-4.64844,45.16113,12.78809,60.10742l23.60547,20.2334,2.09863,12.58496c3.66211,21.97266,13.92383,41.91211,29.6748,57.66309,.75684,.75781,1.77734,1.17188,2.82812,1.17188,.26074,0,.52344-.02539,.78418-.07812,17.16699-3.43311,32.28418-12.47217,43.2854-25.37451,17.1792,16.44824,39.56274,25.45264,63.5271,25.45264,50.72852,0,92-41.27148,92-92,0-24.18311-9.38403-46.2124-24.6958-62.65039Zm-50.69507-181.34961h-82.2168l5.25-56h82.86157l-5.89478,56Zm-165.00146-56l-5.25,56h-71.96533l5.25-56h71.96533Zm8.03467,0h71.96533l-5.25,56h-71.96533l5.25-56Zm108.73364-41.125l4.05371-24.32715c.63281-3.79395,3.88379-6.54785,7.73047-6.54785,2.30859,0,4.4873,1.00977,5.97949,2.77148,1.49219,1.76074,2.12988,4.07617,1.75098,6.35352l-4.05469,24.32715c-.63281,3.79395-3.88379,6.54785-7.73047,6.54785-2.30762,0-4.4873-1.00977-5.97949-2.77148-1.49121-1.76074-2.12891-4.07617-1.75-6.35352ZM162.02734,28c2.30859,0,4.4873,1.00977,5.97949,2.77148,1.49219,1.76074,2.12988,4.07617,1.75098,6.35352l-4.05469,24.32715c-.63281,3.79395-3.88379,6.54785-7.73047,6.54785-2.30859,0-4.4873-1.00977-5.97949-2.77148-1.49219-1.76074-2.12988-4.07617-1.75098-6.35352l4.05469-24.32715c.63281-3.79395,3.88379-6.54785,7.73047-6.54785Zm-55.55762,34.74414c.64551-6.125,5.77637-10.74414,11.93457-10.74414h24.87402l-.92676,5.56055c-.7666,4.60059,.52246,9.28027,3.53711,12.83984,3.01562,3.55859,7.41992,5.59961,12.08398,5.59961,7.77344,0,14.34375-5.56543,15.62109-13.2334l1.79443-10.7666h186.02368l-.92651,5.55957c-.76758,4.60059,.52148,9.28027,3.53613,12.83984,3.01562,3.55957,7.41992,5.60059,12.08398,5.60059,7.77344,0,14.34375-5.56543,15.62109-13.2334l1.79443-10.7666h20.70654c3.44531,0,6.6123,1.41016,8.91797,3.9707s3.37695,5.8584,3.01562,9.28516l-2.81519,26.74414H103.39014l3.07959-29.25586Zm-3.92163,37.25586h69.05957l-5.25,56H96.65356l5.89453-56Zm63.05957,64l-5.25,56H89.91675l5.89478-56h69.79614Zm-17.25,184H76.44336l5.89453-56h71.26978l-5.25,56Zm6-64H83.18018l5.89453-56h70.53296l-5.25,56Zm14.03467-64l5.25-56h71.96533l-5.25,56h-71.96533Zm80,0l5.25-56h71.96533l-5.25,56h-71.96533Zm80,0l5.25-56h82.12476l-5.89453,56h-81.48022Zm103.66113-134.29297l26.2937,243.21533c-13.8042-11.35205-30.96045-18.76514-49.73633-20.51611l23.44263-222.69922Zm-109.3186,347.29248c-4.46582-10.43457-6.73486-21.52686-6.73486-32.99951,0-.79004,.01245-1.58252,.03418-2.37256,5.05762-1.77686,9.93945-4.06885,14.57715-6.85791-.40186,3.0498-.61133,6.13232-.61133,9.23047,0,12.89453,3.53613,25.49707,10.22559,36.44629,.05225,.08545,.12451,.15332,.18237,.23389l-8.34546-1.28369c-3.23291-.49756-6.3501-1.31055-9.32764-2.39697Zm-10.5166-5.38818c-8.85303-6.02588-15.54272-14.94482-18.79346-25.58008,4.93677-.22607,9.81006-.93164,14.57568-2.05615l-.00049,.0249c0,9.48291,1.4209,18.72949,4.21826,27.61133Zm25.78174-27.61133c0-5.396,.7002-10.7373,2.06592-15.90088,3.59985-2.9458,6.99951-6.21436,10.12842-9.83447,6.67163-7.71875,11.67529-16.37988,14.96875-25.5376,6.02637-4.09863,12.78149-7.13623,19.83691-8.89697v47.5127l-40.44043,40.44043c-4.30371-8.58008-6.55957-18.08789-6.55957-27.7832Zm-50.63086-68.51465l46.23438-52.39746,2.59277,5.90625c.8833,2.01172,1.68115,4.0625,2.3833,6.11963l-37.76514,42.80127c-4.03906,4.57617-9.88574,7.20117-16.04297,7.20117h-.36523c-2.83472,0-5.53125-.68848-7.93506-1.89844,4.14673-1.68604,7.87646-4.30811,10.89795-7.73242Zm-75.85449-1.63721c.70532,1.21191,1.48877,2.37793,2.35376,3.48486l-6.5481,2.80664,4.19434-6.2915Zm82.20312,153.77588c-13.70898-14.31348-22.6582-32.16895-25.92676-51.77441l-2.33691-14.01855c-.1543-.92578-.62891-1.76758-1.3418-2.37891l-24.70898-21.17969c-15.5498-13.32812-19.41211-35.87891-9.18359-53.62109,.55664-.9668,.68555-2.12305,.35254-3.18848-.33203-1.06543-1.09375-1.94336-2.10156-2.42285-8.50977-4.04199-13.66211-12.74512-13.12598-22.17188,.66211-11.60742,10.28223-21.11816,21.90137-21.65234,.36816-.01758,.73438-.02539,1.09961-.02539,5.96094,0,11.57031,2.24023,15.89844,6.37402,4.5957,4.38965,7.12695,10.30566,7.12695,16.6582,0,3.45508-.74512,6.77539-2.21484,9.86816-.33203,.7002-.4541,1.48242-.35059,2.25098l.05957,.44141c1.71289,12.73242,12.69336,22.33301,25.54102,22.33301h.36523c8.45117,0,16.48438-3.61133,22.04102-9.9082l46.2334-52.39844,2.59375,5.90723c11.31543,25.77539,6.91016,55.01855-11.49805,76.31738-18.4082,21.29785-46.70312,29.88867-73.84863,22.42773l-2.12109,7.71289c5.625,1.54688,11.29297,2.47363,16.92773,2.80273,5.62695,21.7627,23.38379,37.88574,45.74609,41.3252l9.97949,1.53516c-8.79492,19.62988-26.12695,33.91504-47.10742,38.78613Zm106.28223,.37598c-22.17236,0-42.85156-8.45703-58.61719-23.85693,3.16138-4.6167,5.84619-9.61816,7.97754-14.94678l.82031-2.05176c.45312-1.13281,.36426-2.41016-.24023-3.46875-.60547-1.05957-1.66016-1.78418-2.86523-1.96973l-1.0437-.16064c.14966-.1123,.30103-.22266,.4353-.35693l45.36133-45.36035c.75-.75,1.17188-1.76758,1.17188-2.82812v-54.08691c0-1.17676-.51758-2.29297-1.41602-3.05371-.89746-.75977-2.08691-1.08105-3.24512-.8916-6.96143,1.16748-13.75684,3.4292-20.0708,6.63916,1.06201-5.25977,1.58594-10.61768,1.56079-16.00146,9.61401-3.70557,19.74512-5.60547,30.17114-5.60547,46.31738,0,84,37.68262,84,84s-37.68262,84-84,84Z"/>
<path class="n" d="M411.64941,330.96484c-1.15918-.19238-2.34766,.13281-3.24512,.89258-.89844,.75977-1.41602,1.87695-1.41602,3.05371l.01172,54.08984c0,1.06055,.42188,2.07715,1.17188,2.82715l45.36133,45.36035c.75391,.75488,1.77344,1.17188,2.82812,1.17188,.15723,0,.31445-.00879,.47266-.02832,1.21777-.14453,2.30176-.83984,2.94043-1.88574,6.68945-10.94922,10.22559-23.55176,10.22559-36.44629,0-34.33496-24.54004-63.36816-58.35059-69.03516Zm43.79102,96.81836l-40.44043-40.44043-.01074-47.52441c27.50977,6.77734,47.01074,31.37207,47.01074,60.18164,0,9.69531-2.25586,19.20312-6.55957,27.7832Z"/>
<path class="n" d="M390.53027,418.30469c-1.49707-.62012-3.21582-.27734-4.3584,.86719l-29.84473,29.84668c-.80859,.80762-1.23242,1.92285-1.16504,3.06348,.06738,1.13965,.61914,2.19727,1.51562,2.90527,9.2002,7.25781,20.15039,12.11523,31.66797,14.04688,.21973,.03613,.44141,.05469,.66113,.05469,.93945,0,1.85645-.33105,2.58398-.94727,.89844-.75977,1.41602-1.87695,1.41602-3.05371l-.00684-43.08887c0-1.61719-.97461-3.07617-2.46973-3.69434Zm-25.24707,33.07031l19.71875-19.71875,.00391,28.51758c-7.01855-1.74902-13.71289-4.73535-19.72266-8.79883Z"/>
<path class="n" d="M413.82812,419.17188c-1.14258-1.14453-2.86523-1.4873-4.3584-.86719-1.49512,.61914-2.46973,2.07715-2.46973,3.69531v43.08789c0,1.17676,.51758,2.29395,1.41602,3.05371,.72754,.61523,1.64453,.94629,2.58398,.94629,.21973,0,.44141-.01855,.66211-.05469,11.5127-1.93262,22.46094-6.78906,31.66113-14.0459,.89648-.70801,1.44824-1.76465,1.51562-2.90527s-.35645-2.25586-1.16504-3.06348l-29.8457-29.84668Zm1.17188,41v-28.51465l19.7168,19.71777c-6.00879,4.0625-12.7002,7.04785-19.7168,8.79688Z"/>
<rect class="n" height="8" width="11.12598" x="226.75391" y="306.36133"/>
</g>
</g>
<g id="d"/>
</svg>