<?xml version="1.0" ?>
<!-- Uploaded to: SVG Repo, www.svgrepo.com, Generator: SVG Repo Mixer Tools -->
<svg width="800px" height="800px" viewBox="0 0 512 512" xmlns="http://www.w3.org/2000/svg">
<defs>
<style>.e{fill:#ededed;}.f{fill:#f2c34e;}.g{fill:#cecece;}.h{fill:#bebebe;}.i{fill:#41a08e;}.j{fill:#365650;}</style>
</defs>
<g id="a"/>
<g id="b"/>
<g id="c">
<g>
<rect class="e" height="464" width="400" x="56" y="24"/>
<path class="g" d="M459.02947,157.00458l-38.05891,38.05891c-3.18259,3.18259-4.97056,7.49912-4.97056,11.99999v.00005c0,15.11914,18.27969,22.69084,28.97053,11.99999l38.05891-38.05891c3.18259-3.18259,4.97056-7.49912,4.97056-11.99999v-.00005c0-15.11914-18.27969-22.69084-28.97053-11.99999Z"/>
<path class="g" d="M459.02947,205.00458l-38.05891,38.05891c-3.18259,3.18259-4.97056,7.49912-4.97056,11.99999v.00005c0,15.11914,18.27969,22.69084,28.97053,11.99999l38.05891-38.05891c3.18259-3.18259,4.97056-7.49912,4.97056-11.99999v-.00005c0-15.11914-18.27969-22.69084-28.97053-11.99999Z"/>
<path class="g" d="M459.02947,253.00458l-38.05891,38.05891c-3.18259,3.18259-4.97056,7.49912-4.97056,11.99999v.00005c0,15.11914,18.27969,22.69084,28.97053,11.99999l38.05891-38.05891c3.18259-3.18259,4.97056-7.49912,4.97056-11.99999v-.00005c0-15.11914-18.27969-22.69084-28.97053-11.99999Z"/>
<path class="g" d="M459.02947,301.00458l-38.05891,38.05891c-3.18259,3.18259-4.97056,7.49912-4.97056,11.99999v.00005c0,15.11914,18.27969,22.69084,28.97053,11.99999l38.05891-38.05891c3.18259-3.18259,4.97056-7.49912,4.97056-11.99999v-.00005c0-15.11914-18.27969-22.69084-28.97053-11.99999Z"/>
<path class="g" d="M485.27881,354.41748l-5.27881-26.34937-24,23.93188v48.06812l22.21533-22.2627c6.11353-6.12646,8.76367-14.90137,7.06348-23.38794Z"/>
<path class="i" d="M256.02539,56c-55.22852,0-100,44.77148-100,100s44.77148,100,100,100,100-44.77148,100-100-44.77161-100-100-100Zm-75,100c0-37.16235,27.02832-68.01172,62.49951-73.96289l.00049,61.46289-51.547,51.54614c-6.94885-11.37354-10.953-24.74219-10.953-39.04614Zm28.58533,58.9165l33.91467-33.9165,.00757,48.96436c-12.66565-2.12354-24.25513-7.42163-33.92224-15.04785Zm58.91492,15.04639l-.00024-48.96289,33.91504,33.91602c-9.66528,7.625-21.2522,12.92236-33.91479,15.04688Zm51.54675-34.91699l-51.547-51.5459-.01294-61.46533c35.47778,5.9458,62.51294,36.79834,62.51294,73.96533,0,14.30371-4.00439,27.67236-10.953,39.0459Z"/>
<rect class="f" height="7.99977" transform="translate(-183.22478 297.38417) rotate(-68.20119)" width="43.08132" x="106.45934" y="280.00012"/>
<rect class="f" height="7.99977" transform="translate(-168.13715 319.66802) rotate(-68.20119)" width="43.08132" x="130.45934" y="280.00012"/>
<rect class="f" height="7.99977" transform="translate(-119.08508 568.116) rotate(-68.20119)" width="43.08132" x="338.45934" y="368.00012"/>
<rect class="f" height="7.99977" transform="translate(-103.99745 590.39984) rotate(-68.20119)" width="43.08132" x="362.45934" y="368.00012"/>
<rect class="f" height="8" width="224" x="176" y="284"/>
<rect class="f" height="8" width="288" x="112" y="324"/>
<rect class="f" height="8" width="224" x="112" y="364"/>
<rect class="g" height="8" width="128" x="192" y="412"/>
<rect class="g" height="8" width="96" x="208" y="444"/>
<rect class="h" height="7.99984" transform="translate(-29.52989 376.78561) rotate(-45.00495)" width="53.82298" x="413.08851" y="220.03426"/>
<rect class="h" height="7.99984" transform="translate(-63.47394 390.84741) rotate(-45.00495)" width="53.82298" x="413.08851" y="268.03426"/>
<rect class="h" height="7.99984" transform="translate(-97.418 404.90921) rotate(-45.00495)" width="53.82298" x="413.08851" y="316.03426"/>
<rect class="h" height="7.99984" transform="translate(-105.61476 429.58811) rotate(-45)" width="27.53263" x="451.98503" y="338.28243"/>
<path class="g" d="M52.97053,156.93842l38.05891,38.05891c3.18259,3.18259,4.97056,7.49912,4.97056,11.99999v.00005c0,15.11914-18.27969,22.69084-28.97053,11.99999l-38.05891-38.05891c-3.18259-3.18259-4.97056-7.49912-4.97056-11.99999v-.00005c0-15.11914,18.27969-22.69084,28.97053-11.99999Z"/>
<path class="g" d="M52.97053,204.93842l38.05891,38.05891c3.18259,3.18259,4.97056,7.49912,4.97056,11.99999v.00005c0,15.11914-18.27969,22.69084-28.97053,11.99999l-38.05891-38.05891c-3.18259-3.18259-4.97056-7.49912-4.97056-11.99999v-.00005c0-15.11914,18.27969-22.69084,28.97053-11.99999Z"/>
<path class="g" d="M52.97053,252.93842l38.05891,38.05891c3.18259,3.18259,4.97056,7.49912,4.97056,11.99999v.00005c0,15.11914-18.27969,22.69084-28.97053,11.99999l-38.05891-38.05891c-3.18259-3.18259-4.97056-7.49912-4.97056-11.99999v-.00005c0-15.11914,18.27969-22.69084,28.97053-11.99999Z"/>
<path class="g" d="M52.97053,300.93842l38.05891,38.05891c3.18259,3.18259,4.97056,7.49912,4.97056,11.99999v.00005c0,15.11914-18.27969,22.69084-28.97053,11.99999l-38.05891-38.05891c-3.18259-3.18259-4.97056-7.49912-4.97056-11.99999v-.00005c0-15.11914,18.27969-22.69084,28.97053-11.99999Z"/>
<path class="g" d="M26.72119,354.35132l5.27881-26.34937,24,23.93188v48.06812l-22.21533-22.2627c-6.11353-6.12646-8.76367-14.90137-7.06348-23.38794Z"/>
<rect class="h" height="53.82298" transform="translate(-137.27172 116.49234) rotate(-44.99505)" width="7.99984" x="68.00008" y="197.05653"/>
<rect class="h" height="53.82298" transform="translate(-171.20991 130.54828) rotate(-44.99505)" width="7.99984" x="68.00008" y="245.05653"/>
<rect class="h" height="53.82298" transform="translate(-205.14811 144.60423) rotate(-44.99505)" width="7.99984" x="68.00008" y="293.05653"/>
<rect class="h" height="27.53263" transform="translate(-228.43747 132.93554) rotate(-45)" width="7.99984" x="42.24874" y="328.44987"/>
<path class="j" d="M492,217.00488c0-8.64355-4.96045-16.06738-12.9458-19.375-1.81567-.75146-3.67114-1.229-5.52612-1.46704l12.32983-12.32983c3.96094-3.96094,6.14209-9.22656,6.14209-14.82812,0-8.64355-4.96045-16.06738-12.9458-19.375-6.44946-2.6687-13.39905-2.04419-19.0542,1.5127V24c0-2.20898-1.79102-4-4-4H56c-2.20898,0-4,1.79102-4,4v127.07495c-5.65613-3.55713-12.60815-4.18286-19.05469-1.51245-7.98486,3.30762-12.94531,10.73145-12.94531,19.37402,0,5.60156,2.18115,10.86719,6.14209,14.82812l12.32996,12.33008c-1.85559,.23779-3.7113,.71558-5.52673,1.46777-7.98486,3.30762-12.94531,10.73145-12.94531,19.37402,0,5.60156,2.18115,10.86719,6.14209,14.82812l12.32983,12.32983c-1.85547,.23804-3.71118,.71582-5.52661,1.46802-7.98486,3.30762-12.94531,10.73145-12.94531,19.37402,0,5.60156,2.18115,10.86719,6.14209,14.82812l12.32996,12.33008c-1.85559,.23779-3.7113,.71558-5.52673,1.46777-7.98486,3.30762-12.94531,10.73145-12.94531,19.37402,0,5.60156,2.18115,10.86719,6.14209,14.82812l1.53247,1.53247-4.87524,24.33472c-1.96729,9.81836,1.08105,19.91113,8.15381,26.99902l21.04688,21.0918v86.27734c0,2.20898,1.79102,4,4,4H456c2.20898,0,4-1.79102,4-4v-86.27734l21.04688-21.0918c7.07275-7.08789,10.12109-17.18066,8.15381-26.99902l-4.86377-24.27783,1.521-1.521c3.96094-3.96094,6.14209-9.22656,6.14209-14.82812,0-8.64355-4.96045-16.06738-12.9458-19.375-1.81567-.75146-3.67114-1.229-5.52637-1.4668l12.33008-12.33008c3.96094-3.96094,6.14209-9.22656,6.14209-14.82812,0-8.64355-4.96045-16.06738-12.9458-19.375-1.8158-.75146-3.67139-1.22876-5.52661-1.46655l12.33032-12.33032c3.96094-3.96094,6.14209-9.22656,6.14209-14.82812Zm-21.0957-60.99023c1.85449,0,3.60889,.39355,5.08838,1.00684,3.87109,1.60352,8.00732,5.59375,8.00732,11.9834,0,3.46484-1.34912,6.72168-3.79932,9.17188l-38.06445,38.06445c-4.5166,4.51123-10.25854,4.40747-14.12939,2.80566-3.87061-1.60352-8.00684-5.59375-8.00684-11.9834,0-3.46484,1.34912-6.72168,3.79932-9.17188l38.05859-38.05859c2.79102-2.79102,6.0498-3.81836,9.04639-3.81836ZM28,168.93652c0-6.38965,4.13623-10.37988,8.00684-11.9834,1.47998-.6123,3.23389-1.00684,5.08887-1.00684,2.99658,0,6.25586,1.02832,9.04688,3.81836l38.05811,38.05859c2.4502,2.4502,3.79932,5.70703,3.79932,9.17188,0,6.38965-4.13623,10.37988-8.00732,11.9834-3.87207,1.60352-9.61816,1.70605-14.13477-2.81152l-38.05859-38.05859c-2.4502-2.4502-3.79932-5.70703-3.79932-9.17188Zm0,48c0-6.38965,4.13623-10.37988,8.00684-11.9834,1.47998-.6123,3.23389-1.00684,5.08887-1.00684,2.99487,0,6.25171,1.02734,9.04175,3.81372l14.06323,14.06323,24,24c2.4502,2.4502,3.79932,5.70703,3.79932,9.17188,0,6.38965-4.13623,10.37988-8.00732,11.9834-3.87207,1.60352-9.61816,1.70605-14.13477-2.81152l-38.05859-38.05859c-2.4502-2.4502-3.79932-5.70703-3.79932-9.17188Zm0,48c0-6.38965,4.13623-10.37988,8.00684-11.9834,1.47998-.6123,3.23389-1.00684,5.08887-1.00684,2.99487,0,6.25171,1.02734,9.04175,3.81372l38.06323,38.06323c2.4502,2.4502,3.79932,5.70703,3.79932,9.17188,0,6.38965-4.13623,10.37988-8.00732,11.9834-3.87207,1.60449-9.61816,1.70605-14.13477-2.81152l-38.05859-38.05859c-2.4502-2.4502-3.79932-5.70703-3.79932-9.17188Zm8.00684,36.0166c1.47998-.6123,3.23389-1.00684,5.08887-1.00684,2.99487,0,6.25171,1.02734,9.04175,3.81372l38.06323,38.06323c2.4502,2.4502,3.79932,5.70703,3.79932,9.17188,0,6.38965-4.13623,10.37988-8.00732,11.9834-3.87207,1.60449-9.61816,1.70605-14.13477-2.81152l-38.05859-38.05859c-2.4502-2.4502-3.79932-5.70703-3.79932-9.17188,0-6.38965,4.13623-10.37988,8.00684-11.9834Zm.60938,74.02734c-5.18066-5.19238-7.41357-12.58496-5.97314-19.77637l3.82837-19.11011,17.52856,17.52856v36.77441l-15.38379-15.4165Zm23.38379,109.01953v-122.37744l4.20068,4.20068c4.06396,4.06445,9.29688,6.19629,14.6958,6.19629,2.71973,0,5.48242-.54199,8.15771-1.64941,7.98535-3.30762,12.9458-10.73145,12.9458-19.375,0-5.60156-2.18115-10.86719-6.14209-14.82812l-12.3363-12.33643c1.8573-.23755,3.71521-.70801,5.53259-1.46045,7.98535-3.30762,12.9458-10.73145,12.9458-19.375,0-5.60156-2.18115-10.86719-6.14209-14.82812l-12.3363-12.33643c1.8573-.23755,3.71521-.70801,5.53259-1.46045,7.98535-3.30762,12.9458-10.73145,12.9458-19.375,0-5.60156-2.18115-10.86719-6.14209-14.82812l-12.3363-12.33643c1.8573-.23755,3.71521-.70801,5.53259-1.46045,7.98535-3.30762,12.9458-10.73145,12.9458-19.375,0-5.60156-2.18115-10.86719-6.14209-14.82812l-33.85791-33.85791V28H452V158.37744l-33.85791,33.85791c-3.96094,3.96094-6.14209,9.22656-6.14209,14.82812,0,8.64258,4.96045,16.06641,12.94531,19.37402,1.81812,.75317,3.67603,1.22339,5.53369,1.46094l-12.33691,12.33691c-3.96094,3.96094-6.14209,9.22656-6.14209,14.82812,0,8.64258,4.96045,16.06641,12.94531,19.37402,1.81812,.75317,3.67603,1.22339,5.53369,1.46094l-12.33691,12.33691c-3.96094,3.96094-6.14209,9.22656-6.14209,14.82812,0,8.64258,4.96045,16.06641,12.94531,19.37402,1.81812,.75317,3.67603,1.22339,5.53369,1.46094l-12.33691,12.33691c-3.96094,3.96094-6.14209,9.22656-6.14209,14.82812,0,8.64258,4.96045,16.06641,12.94531,19.37402,2.67578,1.1084,5.4375,1.64941,8.15869,1.64941,5.39746,0,10.63184-2.13184,14.69531-6.19531l4.20068-4.20068v122.30908H60Zm421.35693-128.7959c1.44043,7.19141-.79248,14.58398-5.97314,19.77637l-15.38379,15.4165v-36.70605l17.53992-17.54004,3.81702,19.05322Zm-10.45264-55.18945c1.85449,0,3.60889,.39355,5.08838,1.00684,3.87109,1.60352,8.00732,5.59375,8.00732,11.9834,0,3.46484-1.34912,6.72168-3.79932,9.17188l-38.05811,38.05859c-4.51758,4.5166-10.26318,4.41406-14.13574,2.81152-3.87061-1.60352-8.00684-5.59375-8.00684-11.9834,0-3.46484,1.34912-6.72168,3.79932-9.17188l38.05859-38.05859c2.79102-2.79102,6.0498-3.81836,9.04639-3.81836Zm0-48c1.85449,0,3.60889,.39355,5.08838,1.00684,3.87109,1.60352,8.00732,5.59375,8.00732,11.9834,0,3.46484-1.34912,6.72168-3.79932,9.17188l-38.06445,38.06445c-4.5166,4.51025-10.25854,4.40747-14.12939,2.80566-3.87061-1.60352-8.00684-5.59375-8.00684-11.9834,0-3.46484,1.34912-6.72168,3.79932-9.17188l38.05859-38.05859c2.79102-2.79102,6.0498-3.81836,9.04639-3.81836Zm9.29639-25.83789l-38.06445,38.06445c-4.5166,4.51123-10.25854,4.40747-14.12939,2.80566-3.87061-1.60352-8.00684-5.59375-8.00684-11.9834,0-3.46484,1.34912-6.72168,3.79932-9.17188l38.05859-38.05859c2.79102-2.79102,6.0498-3.81836,9.04639-3.81836,1.85449,0,3.60889,.39355,5.08838,1.00684,3.87109,1.60352,8.00732,5.59375,8.00732,11.9834,0,3.46484-1.34912,6.72168-3.79932,9.17188Z"/>
<path class="j" d="M256.02539,260c57.3457,0,104-46.6543,104-104s-46.6543-104-104-104-104,46.6543-104,104,46.6543,104,104,104Zm0-200c52.93457,0,96,43.06543,96,96s-43.06543,96-96,96-96-43.06543-96-96,43.06543-96,96-96Z"/>
<path class="j" d="M191.50586,199.01758c.15771,.01953,.31592,.02832,.47314,.02832,1.0542,0,2.07324-.41699,2.82812-1.17188l51.54688-51.5459c.75-.75,1.17139-1.76758,1.17139-2.82812l-.00049-61.46289c0-1.17676-.51807-2.29395-1.41602-3.05371-.89795-.75879-2.08545-1.08105-3.24561-.8916-38.14893,6.40137-65.83789,39.16602-65.83789,77.9082,0,14.55176,3.99023,28.77539,11.54004,41.13184,.63916,1.0459,1.72266,1.74121,2.94043,1.88574Zm48.01904-112.09473l.00049,54.91992-46.64648,46.64648c-5.15088-10.00098-7.85352-21.13281-7.85352-32.48926,0-33.22168,22.64697-61.55176,54.49951-69.07715Z"/>
<path class="j" d="M265.69678,146.32812l51.54688,51.5459c.75488,.75488,1.77393,1.17188,2.82812,1.17188,.15723,0,.31543-.00879,.47314-.02832,1.21777-.14453,2.30127-.83984,2.94043-1.88574,7.5498-12.35645,11.54004-26.58008,11.54004-41.13184,0-38.75-27.69482-71.51562-65.85205-77.91016-1.16211-.19141-2.34814,.13184-3.24561,.89258-.89795,.75977-1.41602,1.87695-1.41553,3.05371l.01318,61.46484c0,1.06055,.42188,2.07715,1.17139,2.82715Zm61.32861,9.67188c0,11.35645-2.70264,22.48828-7.85352,32.48926l-46.64697-46.64648-.01172-54.92285c31.85986,7.52148,54.51221,35.85254,54.51221,69.08008Z"/>
<path class="j" d="M245.05566,177.30469c-1.49414-.61914-3.21533-.27734-4.35889,.86719l-33.91455,33.91602c-.80762,.80762-1.23145,1.92285-1.16455,3.0625,.06689,1.14062,.61865,2.19824,1.51562,2.90625,10.3833,8.19238,22.7417,13.67383,35.73828,15.85254,.22021,.03613,.44141,.05469,.66113,.05469,.93896,0,1.85693-.33105,2.58447-.94727,.89795-.75977,1.41553-1.87695,1.41553-3.05371l-.00732-48.96387c-.00049-1.61719-.9751-3.07617-2.46973-3.69434Zm-29.33154,37.15527l23.80273-23.80469,.00488,34.41797c-8.49756-2.02734-16.59473-5.63672-23.80762-10.61328Z"/>
<path class="j" d="M271.354,178.17188c-1.14404-1.14453-2.86377-1.48535-4.35938-.86719-1.49463,.61914-2.46924,2.07715-2.46924,3.69531v48.96289c0,1.17676,.51807,2.29297,1.41602,3.05371,.72754,.61523,1.64502,.94629,2.58398,.94629,.22021,0,.44141-.01855,.66162-.05469,12.99268-2.17969,25.34814-7.66113,35.73096-15.85156,.89697-.70801,1.44873-1.76562,1.51562-2.90625,.06689-1.13965-.35693-2.25488-1.16455-3.0625l-33.91504-33.91602Zm1.17139,46.89941v-34.41406l23.80176,23.80273c-7.21191,4.97461-15.30713,8.58398-23.80176,10.61133Z"/>
<rect class="j" height="7.99977" transform="translate(-183.22478 297.38417) rotate(-68.20119)" width="43.08132" x="106.45934" y="280.00012"/>
<rect class="j" height="7.99977" transform="translate(-168.13715 319.66802) rotate(-68.20119)" width="43.08132" x="130.45934" y="280.00012"/>
<rect class="j" height="7.99977" transform="translate(-119.08508 568.116) rotate(-68.20119)" width="43.08132" x="338.45934" y="368.00012"/>
<rect class="j" height="7.99977" transform="translate(-103.99745 590.39984) rotate(-68.20119)" width="43.08132" x="362.45934" y="368.00012"/>
<rect class="j" height="8" width="224" x="176" y="284"/>
<rect class="j" height="8" width="288" x="112" y="324"/>
<rect class="j" height="8" width="224" x="112" y="364"/>
<rect class="j" height="8" width="128" x="192" y="412"/>
<rect class="j" height="8" width="96" x="208" y="444"/>
</g>
</g>
<g id="d"/>
</svg>